<?xml version="1.0" encoding="UTF-8" standalone="no"?>
<svg
   xmlns:dc="http://purl.org/dc/elements/1.1/"
   xmlns:cc="http://creativecommons.org/ns#"
   xmlns:rdf="http://www.w3.org/1999/02/22-rdf-syntax-ns#"
   xmlns:svg="http://www.w3.org/2000/svg"
   xmlns="http://www.w3.org/2000/svg"
   xmlns:sodipodi="http://sodipodi.sourceforge.net/DTD/sodipodi-0.dtd"
   xmlns:inkscape="http://www.inkscape.org/namespaces/inkscape"
   version="1.1"
   id="Layer_1"
   x="0px"
   y="0px"
   viewBox="5.0 -10.0 100.0 135.0"
   enable-background="new 0 0 100 100"
   xml:space="preserve"
   height="100px"
   width="100px"
   inkscape:version="0.48.4 r9939"
   sodipodi:docname="clock.svg"><metadata
     id="metadata13"><rdf:RDF><cc:Work
         rdf:about=""><dc:format>image/svg+xml</dc:format><dc:type
           rdf:resource="http://purl.org/dc/dcmitype/StillImage" /></cc:Work></rdf:RDF></metadata><defs
     id="defs11" /><sodipodi:namedview
     pagecolor="#ffffff"
     bordercolor="#666666"
     borderopacity="1"
     objecttolerance="10"
     gridtolerance="10"
     guidetolerance="10"
     inkscape:pageopacity="0"
     inkscape:pageshadow="2"
     inkscape:window-width="1280"
     inkscape:window-height="750"
     id="namedview9"
     showgrid="false"
     inkscape:zoom="1.668772"
     inkscape:cx="55.087658"
     inkscape:cy="97.867235"
     inkscape:window-x="0"
     inkscape:window-y="0"
     inkscape:window-maximized="1"
     inkscape:current-layer="Layer_1" /><path
     d="m 79.908898,76.780085 c 1.346186,1.196609 1.996293,2.497563 0.799682,3.84375 -1.19661,1.346186 -2.497564,0.709216 -3.843749,-0.48739 L 53.979661,59.794066 c -0.747882,-0.598304 -1.047034,-1.495761 -1.047034,-2.393219 l 0,-0.149576 0,-30.663134 c 0,-1.794918 0.78072,-3.141103 2.42606,-3.141103 1.794915,0 2.345895,1.497716 2.426059,3.141103 l 0,30.174998 z M 119.33941,57.550424 c 0,37.094914 -30.501564,65.011776 -64.163139,64.735176 -34.806779,-0.28602 -64.7351695,-31.644499 -64.7351695,-65.021193 0,-35.092797 30.2144075,-63.8771189 64.4491525,-63.8771189 33.376695,0 64.449156,26.9186439 64.449156,64.1631359 z M 54.890254,-2.3377119 c -31.859745,0 -59.6021184,28.0283899 -59.6021184,59.8881359 0,31.859744 28.0283904,59.888146 59.8881354,59.888146 31.859745,0 60.174169,-27.742385 60.174169,-59.602129 0,-31.859746 -28.600441,-60.1741529 -60.460186,-60.1741529 z"
     id="path3"
     inkscape:connector-curvature="0"
     sodipodi:nodetypes="csscscsssccssssssssss" /></svg>