<?xml version="1.0" encoding="UTF-8" standalone="no"?>
<svg
   xmlns:dc="http://purl.org/dc/elements/1.1/"
   xmlns:cc="http://creativecommons.org/ns#"
   xmlns:rdf="http://www.w3.org/1999/02/22-rdf-syntax-ns#"
   xmlns:svg="http://www.w3.org/2000/svg"
   xmlns="http://www.w3.org/2000/svg"
   xmlns:sodipodi="http://sodipodi.sourceforge.net/DTD/sodipodi-0.dtd"
   xmlns:inkscape="http://www.inkscape.org/namespaces/inkscape"
   version="1.1"
   id="Layer_1"
   x="0px"
   y="0px"
   viewBox="5.0 -10.0 100.0 135.0"
   enable-background="new 0 0 100 100"
   xml:space="preserve"
   height="100px"
   width="100px"
   inkscape:version="0.48.4 r9939"
   sodipodi:docname="noun_55047_cc.svg"><metadata
     id="metadata13"><rdf:RDF><cc:Work
         rdf:about=""><dc:format>image/svg+xml</dc:format><dc:type
           rdf:resource="http://purl.org/dc/dcmitype/StillImage" /></cc:Work></rdf:RDF></metadata><defs
     id="defs11" /><sodipodi:namedview
     pagecolor="#ffffff"
     bordercolor="#666666"
     borderopacity="1"
     objecttolerance="10"
     gridtolerance="10"
     guidetolerance="10"
     inkscape:pageopacity="0"
     inkscape:pageshadow="2"
     inkscape:window-width="1280"
     inkscape:window-height="750"
     id="namedview9"
     showgrid="false"
     inkscape:zoom="4.72"
     inkscape:cx="78.648477"
     inkscape:cy="44.672963"
     inkscape:window-x="0"
     inkscape:window-y="0"
     inkscape:window-maximized="1"
     inkscape:current-layer="Layer_1" /><path
     d="m 81.052966,75.35 c 1.346186,1.196609 1.495763,3.141101 0.299152,4.487288 -1.19661,1.346186 -3.141102,1.495763 -4.487287,0.299153 L 53.979661,59.794066 c -0.747882,-0.598304 -1.047034,-1.495761 -1.047034,-2.393219 l 0,-0.149576 0,-30.663134 c 0,-1.794918 1.495762,-3.141103 3.141102,-3.141103 1.794915,0 3.141102,1.495762 3.141102,3.141103 l 0,29.316947 z M 122.4856,57.550424 c 0,37.094914 -30.214414,67.309326 -67.309329,67.309326 -37.094915,0 -67.309322,-30.214412 -67.309322,-67.309326 0,-37.094916 30.214407,-67.3093223 67.309322,-67.3093223 37.094915,0 67.309329,30.0648303 67.309329,67.3093223 z M 54.890254,-2.3377119 c -31.859745,0 -59.6021184,28.0283899 -59.6021184,59.8881359 0,31.859744 28.0283904,59.888146 59.8881354,59.888146 31.859745,0 60.174169,-27.742385 60.174169,-59.602129 0,-31.859746 -28.600441,-60.1741529 -60.460186,-60.1741529 z"
     id="path3"
     inkscape:connector-curvature="0"
     sodipodi:nodetypes="csscscsssccssssssssss" /></svg>