<?xml version="1.0" encoding="UTF-8" standalone="no"?>
<svg
   xmlns:dc="http://purl.org/dc/elements/1.1/"
   xmlns:cc="http://creativecommons.org/ns#"
   xmlns:rdf="http://www.w3.org/1999/02/22-rdf-syntax-ns#"
   xmlns:svg="http://www.w3.org/2000/svg"
   xmlns="http://www.w3.org/2000/svg"
   xmlns:sodipodi="http://sodipodi.sourceforge.net/DTD/sodipodi-0.dtd"
   xmlns:inkscape="http://www.inkscape.org/namespaces/inkscape"
   version="1.1"
   id="Layer_1"
   x="0px"
   y="0px"
   viewBox="4.5 -9.0 90.0 121.5"
   enable-background="new 0 0 90 90"
   xml:space="preserve"
   height="100px"
   width="100px"
   inkscape:version="0.48.4 r9939"
   sodipodi:docname="noun_102549_cc.svg"><metadata
     id="metadata15"><rdf:RDF><cc:Work
         rdf:about=""><dc:format>image/svg+xml</dc:format><dc:type
           rdf:resource="http://purl.org/dc/dcmitype/StillImage" /><dc:title></dc:title></cc:Work></rdf:RDF></metadata><defs
     id="defs13" /><sodipodi:namedview
     pagecolor="#ffffff"
     bordercolor="#666666"
     borderopacity="1"
     objecttolerance="10"
     gridtolerance="10"
     guidetolerance="10"
     inkscape:pageopacity="0"
     inkscape:pageshadow="2"
     inkscape:window-width="1280"
     inkscape:window-height="750"
     id="namedview11"
     showgrid="false"
     inkscape:zoom="2.36"
     inkscape:cx="50"
     inkscape:cy="50"
     inkscape:window-x="0"
     inkscape:window-y="0"
     inkscape:window-maximized="1"
     inkscape:current-layer="Layer_1" /><g
     id="g3"
     transform="matrix(1.3765057,0,0,1.3765057,-10.783611,-9.9405555)"><path
       d="m 45.2,89 0,0 c -1.6,0 -3,-0.8 -3.8,-2.1 L 19.4,50.6 C 15.6,45.3 13.6,39 13.6,32.4 13.6,15.4 26.9,1.6 43.9,1 52.7,0.7 61,4 67.3,10.3 c 6,6 9.2,13.9 9.2,22.3 0,6.4 -2,12.6 -5.6,17.8 L 49,86.9 C 48.2,88.2 46.8,89 45.2,89 z M 45,4 C 44.7,4 44.3,4 44,4 28.6,4.6 16.6,17 16.6,32.4 c 0,5.9 1.8,11.6 5.3,16.5 0,0 0.1,0.1 0.1,0.1 l 22,36.3 c 0.4,0.6 1,0.7 1.2,0.7 l 0,0 c 0.2,0 0.8,-0.1 1.2,-0.7 L 68.2,48.8 c 0,0 0.1,-0.1 0.1,-0.1 C 71.6,44 73.4,38.4 73.4,32.6 73.4,25 70.5,17.9 65.1,12.5 59.7,7 52.5,4 45,4 z m 0,40.8 c -7.1,0 -12.8,-5.7 -12.8,-12.8 0,-7.1 5.7,-12.8 12.8,-12.8 7.1,0 12.8,5.8 12.8,12.8 0,7.1 -5.7,12.8 -12.8,12.8 z m 0,-22.6 c -5.4,0 -9.8,4.4 -9.8,9.8 0,5.4 4.4,9.8 9.8,9.8 5.4,0 9.8,-4.4 9.8,-9.8 0,-5.4 -4.4,-9.8 -9.8,-9.8 z"
       id="path5"
       inkscape:connector-curvature="0" /></g></svg>